<svg width="24" height="24" xmlns="http://www.w3.org/2000/svg"><path d="M18.054 14.47a8.725 8.725 0 0 1-.851 1.546c-.448.645-.814 1.091-1.096 1.34-.438.406-.907.614-1.41.626-.36 0-.795-.103-1.3-.314-.509-.21-.975-.313-1.402-.313-.448 0-.927.104-1.44.313-.515.21-.93.32-1.246.331-.481.02-.962-.193-1.44-.644-.306-.27-.689-.732-1.147-1.386-.492-.7-.896-1.51-1.213-2.435C5.17 12.536 5 11.57 5 10.633c0-1.073.23-1.997.688-2.772A4.06 4.06 0 0 1 7.13 6.387c.6-.36 1.25-.545 1.95-.556.382 0 .883.12 1.507.354.621.236 1.02.356 1.195.356.131 0 .575-.14 1.326-.419.711-.258 1.311-.366 1.803-.323 1.331.108 2.332.639 2.997 1.595-1.19.73-1.78 1.751-1.768 3.062.01 1.02.377 1.87 1.097 2.545.326.313.69.555 1.096.727-.088.258-.18.504-.28.741zM15 2.32c0 .8-.29 1.548-.866 2.24-.696.822-1.537 1.297-2.45 1.222a2.524 2.524 0 0 1-.018-.304c0-.768.33-1.59.918-2.262a3.54 3.54 0 0 1 1.119-.849c.451-.222.878-.345 1.28-.366.012.107.016.214.016.32z" fill="#fff"/></svg>