<svg xmlns="http://www.w3.org/2000/svg" width="21" height="15" viewBox="0 0 21 15" xmlns:xlink="http://www.w3.org/1999/xlink"><defs><path id="a" d="M0 0h21v15H0z"/><path id="b" d="M-1-1h23v17H-1z"/></defs><g fill="none" fill-rule="evenodd"><use fill="#22438B" xlink:href="#a"/><mask id="c" fill="#fff"><use xlink:href="#b"/></mask><path fill="#FFF" d="M3 1l-2.03.03L1 3l16.98 11.03 2.04-.04-.04-1.97" mask="url(#c)"/><path fill="#C7152A" d="M1 2l18 12 1-1L2 1" mask="url(#c)"/><path fill="#FFF" d="M18 1h2v2S8.25 10.4 3.02 14.03c-.07.04-2 0-2 0l-.16-1.9L18 1z" mask="url(#c)"/><path fill="#C7152A" d="M19.04.97L20 2 2 14l-1-1" mask="url(#c)"/><path fill="#FFF" d="M8 1h5v4h7v5h-7v4H8v-4H1V5h7" mask="url(#c)"/><path fill="#C7152A" d="M9 1h3v5h8v3h-8v5H9V9H1V6h8" mask="url(#c)"/></g></svg>