<svg width="24" height="24" xmlns="http://www.w3.org/2000/svg"><path d="M12.014 5.723c1.06 0 1.923.862 1.923 1.923 0 1.06-.863 1.923-1.923 1.923a1.926 1.926 0 0 1-1.924-1.923c0-1.06.864-1.923 1.924-1.923zm0 6.567a4.65 4.65 0 0 0 4.645-4.644A4.65 4.65 0 0 0 12.014 3a4.65 4.65 0 0 0-4.646 4.646 4.65 4.65 0 0 0 4.646 4.644zm1.879 3.79a8.691 8.691 0 0 0 2.697-1.118 1.361 1.361 0 0 0-1.45-2.304 5.9 5.9 0 0 1-6.254 0 1.36 1.36 0 1 0-1.45 2.304 8.71 8.71 0 0 0 2.697 1.117l-2.596 2.598A1.36 1.36 0 0 0 9.462 20.6l2.551-2.552 2.553 2.552a1.36 1.36 0 1 0 1.924-1.924l-2.597-2.598z" fill="#FFFFFE"/></svg>