<svg width="24" height="24" xmlns="http://www.w3.org/2000/svg"><path d="M15.072 2.002h-6.14c-5.603 0-6.93 1.327-6.93 6.93v6.14c0 5.603 1.327 6.93 6.93 6.93h6.14c5.603 0 6.93-1.327 6.93-6.93v-6.14c0-5.603-1.34-6.93-6.93-6.93zm3.077 14.27h-1.454c-.55 0-.72-.438-1.708-1.44-.86-.833-1.242-.946-1.454-.946-.296 0-.38.085-.38.494v1.313c0 .353-.114.565-1.045.565-1.539 0-3.246-.932-4.446-2.668-1.807-2.54-2.3-4.446-2.3-4.841 0-.212.084-.41.493-.41H7.31c.367 0 .508.17.65.565.72 2.075 1.919 3.896 2.413 3.896.183 0 .268-.085.268-.55v-2.146c-.056-.988-.579-1.073-.579-1.426 0-.17.142-.339.367-.339h2.287c.31 0 .423.17.423.537v2.893c0 .31.141.424.226.424.184 0 .339-.113.678-.452 1.044-1.171 1.792-2.978 1.792-2.978.099-.212.268-.41.635-.41h1.454c.438 0 .536.226.438.537-.184.847-1.962 3.36-1.962 3.36-.156.253-.212.366 0 .648.155.212.663.65 1.002 1.045.62.706 1.1 1.298 1.228 1.708.14.409-.07.62-.48.62z" fill="#fff"/></svg>